<?xml version="1.0" encoding="UTF-8"?>
<svg width="65px" height="38px" viewBox="0 0 65 38" version="1.1" xmlns="http://www.w3.org/2000/svg" xmlns:xlink="http://www.w3.org/1999/xlink">
    <!-- Generator: Sketch 47.1 (45422) - http://www.bohemiancoding.com/sketch -->
    <title>thermo</title>
    <desc>Created with Sketch.</desc>
    <defs></defs>
    <g id="Page-1" stroke="none" stroke-width="1" fill="none" fill-rule="evenodd">
        <g id="thermo" transform="translate(1.000000, 0.000000)" fill-rule="nonzero">
            <g id="Group" transform="translate(0.000000, 15.000000)" stroke="#30B1D8" stroke-width="2">
                <path d="M9.374,9.088 L53.216,9.088 C53.216,9.088 57.923,8.747 60.578,13.378 L55.173,4.555 L55.173,4.551 C52.505,0.067 47.893,0.402 47.893,0.402 L14.697,0.402 C14.697,0.402 10.083,0.067 7.415,4.555 L7.416,4.556 L2.391,12.77 L2.394,12.77 C5.093,8.78 9.374,9.088 9.374,9.088 Z" id="Shape" fill="#30B1D8"></path>
                <path d="M60.581,13.382 C60.58,13.381 60.579,13.379 60.578,13.378 C57.923,8.747 53.216,9.088 53.216,9.088 L9.374,9.088 C9.374,9.088 5.093,8.78 2.394,12.769 C2.383,12.785 2.372,12.798 2.361,12.813 C1.135,14.649 0.243,17.383 0.243,21.455 L62.346,21.455 C62.347,17.785 61.622,15.2 60.581,13.382 Z" id="Shape" fill="#FFFFFF"></path>
            </g>
            <path d="M23.245,18.515 L23.245,7.178 C23.245,3.736 20.476,0.935 17.073,0.935 C13.67,0.935 10.901,3.735 10.901,7.178 L10.901,18.514 C9.716,19.956 9.071,21.764 9.071,23.668 C9.071,28.135 12.659,31.769 17.07,31.769 C21.482,31.769 25.071,28.135 25.071,23.668 C25.071,21.763 24.427,19.956 23.245,18.515 Z" id="Shape" fill="#FFFFFF"></path>
            <g id="Layer_1_2_" transform="translate(10.000000, 2.000000)" fill="#30B1D8">
                <g id="Group">
                    <path d="M11.746,17.083 L11.746,5.178 C11.746,2.562 9.649,0.435 7.074,0.435 C4.5,0.435 2.402,2.563 2.402,5.178 L2.402,17.083 C1.261,18.271 0.572,19.89 0.572,21.669 C0.572,25.31 3.487,28.27 7.071,28.27 C10.654,28.27 13.573,25.31 13.573,21.669 C13.571,19.889 12.886,18.271 11.746,17.083 Z M7.068,26.441 C4.478,26.441 2.373,24.3 2.373,21.669 C2.373,20.128 3.078,18.756 4.22,17.883 L4.22,10.333 L6.244,10.333 C6.575,10.333 6.844,10.046 6.844,9.71 C6.844,9.373 6.575,9.088 6.244,9.088 L4.22,9.088 L4.22,7.585 L6.244,7.585 C6.575,7.585 6.844,7.32 6.844,6.984 C6.844,6.647 6.575,6.383 6.244,6.383 L4.22,6.383 L4.22,5.178 C4.22,3.571 5.492,2.264 7.073,2.264 C8.655,2.264 9.927,3.571 9.927,5.179 L9.927,17.902 C11.069,18.776 11.756,20.14 11.756,21.669 C11.755,24.3 9.658,26.441 7.068,26.441 Z" id="Shape"></path>
                    <path d="M8.574,19.006 L8.574,11.794 L5.572,11.794 L5.572,19.006 C4.642,19.539 4.05,20.531 4.05,21.669 C4.05,23.369 5.401,24.745 7.073,24.745 C8.746,24.745 10.094,23.368 10.094,21.669 C10.094,20.532 9.505,19.539 8.574,19.006 Z" id="Shape"></path>
                </g>
            </g>
            <g id="Group-2" transform="translate(34.000000, 4.000000)">
                <path d="M9.5,26.326087 C4.54003082,26.326087 0.5,22.4138041 0.5,17.5632411 C0.5,11.5825736 7.50491596,0.908381605 10.0552658,0.517328336 L11.9162919,0.231971273 L11.7785914,2.10970538 C11.6320616,4.10784052 12.3123702,5.57680182 14.3003063,8.1905432 C14.4249158,8.35438001 14.5579151,8.52801361 14.8219277,8.87239237 C17.4674311,12.3282532 18.5,14.3863713 18.5,17.5632411 C18.5,22.4138041 14.4599692,26.326087 9.5,26.326087 Z" id="Combined-Shape-Copy" fill="#FFFFFF"></path>
                <path d="M9.5,24.826087 C5.35786438,24.826087 2,21.5744001 2,17.5632411 C2,10.7852837 9.63043466,2.0999999 10.2826086,2 C9.82608696,8.22529644 17,10.7852837 17,17.5632411 C17,21.5744001 13.6421356,24.826087 9.5,24.826087 Z M7.48523162,8.31983136 C5.25181633,11.7231418 3.89999998,15.019025 3.89999998,17.5632411 C3.89999998,20.511155 6.39378687,22.926087 9.5,22.926087 C12.6062131,22.926087 15.1,20.511155 15.1,17.5632411 C15.1,15.3479765 14.3445833,13.8422786 12.1221618,10.939096 C11.8600293,10.5971775 11.7228142,10.4180401 11.5940995,10.2488058 C10.4113498,8.69372466 9.57111899,7.39600987 9.04354194,6.12637323 C8.51864201,6.80995647 7.98812753,7.55351131 7.48523162,8.31983136 Z M6.42116619,14.5 C6.9586946,16.723996 8.13228686,17.3210055 9.26583495,17.8561275 C10.399383,18.3912496 10.8800413,19.6591935 9.84023951,20.6264393 C8.80043773,21.5936851 7.42680984,20.9242817 6.42116619,19.1162844 C5.74080008,17.8930877 5.99233588,15.6260875 6.42116619,14.5 Z" id="Combined-Shape" fill="#30B1D8"></path>
            </g>
            <rect id="Rectangle-path" stroke="#30B1D8" fill="#FFFFFF" x="29.17" y="28.06" width="4.251" height="4.417"></rect>
        </g>
    </g>
</svg>